<?xml version="1.0" encoding="UTF-8"?>
<svg xmlns="http://www.w3.org/2000/svg" viewBox="0 0 28 38" fill="#3A3E2C" role="img">
  <title>O</title>
  <g fill="#3A3E2C" fill-rule="evenodd">
    <path d="M 3.01 18.05 L 3.30 17.08 L 3.50 16.18 L 3.76 15.34 L 4.09 14.56 L 4.47 13.85 L 4.91 13.20 L 5.39 12.62 L 5.91 12.08 L 6.47 11.61 L 7.06 11.19 L 7.68 10.82 L 8.33 10.50 L 9.00 10.23 L 9.69 10.01 L 10.39 9.84 L 11.11 9.72 L 11.83 9.64 L 12.56 9.61 L 13.28 9.62 L 14.00 9.68 L 14.71 9.78 L 15.40 9.93 L 16.08 10.11 L 16.73 10.34 L 17.35 10.61 L 17.95 10.91 L 18.50 11.24 L 19.02 11.61 L 19.49 12.01 L 19.91 12.43 L 20.29 12.88 L 20.63 13.35 L 20.91 13.84 L 21.15 14.35 L 21.34 14.88 L 21.49 15.45 L 21.59 16.04 L 21.65 16.66 L 21.65 17.33 L 24.80 18.06 L 25.20 18.04 L 28.27 16.79 L 28.03 15.57 L 27.70 14.42 L 27.28 13.34 L 26.76 12.32 L 26.18 11.38 L 25.52 10.52 L 24.80 9.74 L 24.03 9.04 L 23.21 8.42 L 22.36 7.88 L 21.48 7.41 L 20.58 7.02 L 19.66 6.70 L 18.72 6.44 L 17.78 6.25 L 16.83 6.12 L 15.89 6.05 L 14.94 6.05 L 14.00 6.10 L 13.07 6.21 L 12.15 6.37 L 11.26 6.59 L 10.38 6.87 L 9.53 7.20 L 8.71 7.59 L 7.92 8.03 L 7.17 8.53 L 6.47 9.07 L 5.81 9.67 L 5.21 10.31 L 4.66 11.01 L 4.18 11.75 L 3.77 12.53 L 3.42 13.35 L 3.14 14.22 L 2.95 15.12 L 2.82 16.06 L 2.78 17.04 L 2.99 18.05 Z" />
    <path d="M 2.99 19.95 L 2.78 20.96 L 2.82 21.94 L 2.95 22.88 L 3.14 23.78 L 3.42 24.65 L 3.77 25.47 L 4.18 26.25 L 4.66 26.99 L 5.21 27.69 L 5.81 28.33 L 6.47 28.93 L 7.17 29.47 L 7.92 29.97 L 8.71 30.41 L 9.53 30.80 L 10.38 31.13 L 11.26 31.41 L 12.15 31.63 L 13.07 31.79 L 14.00 31.90 L 14.94 31.95 L 15.89 31.95 L 16.83 31.88 L 17.78 31.75 L 18.72 31.56 L 19.66 31.30 L 20.58 30.98 L 21.48 30.59 L 22.36 30.12 L 23.21 29.58 L 24.03 28.96 L 24.80 28.26 L 25.52 27.48 L 26.18 26.62 L 26.76 25.68 L 27.28 24.66 L 27.70 23.58 L 28.03 22.43 L 28.27 21.21 L 25.20 19.96 L 24.80 19.94 L 21.65 20.67 L 21.65 21.34 L 21.59 21.96 L 21.49 22.55 L 21.34 23.12 L 21.15 23.65 L 20.91 24.16 L 20.63 24.65 L 20.29 25.12 L 19.91 25.57 L 19.49 25.99 L 19.02 26.39 L 18.50 26.76 L 17.95 27.09 L 17.35 27.39 L 16.73 27.66 L 16.08 27.89 L 15.40 28.07 L 14.71 28.22 L 14.00 28.32 L 13.28 28.38 L 12.56 28.39 L 11.83 28.36 L 11.11 28.28 L 10.39 28.16 L 9.69 27.99 L 9.00 27.77 L 8.33 27.50 L 7.68 27.18 L 7.06 26.81 L 6.47 26.39 L 5.91 25.92 L 5.39 25.38 L 4.91 24.80 L 4.47 24.15 L 4.09 23.44 L 3.76 22.66 L 3.50 21.82 L 3.30 20.92 L 3.01 19.95 Z" />
  </g>
</svg>